<svg xmlns="http://www.w3.org/2000/svg" xmlns:xlink="http://www.w3.org/1999/xlink" width="1366" zoomAndPan="magnify" viewBox="0 0 1024.5 623.24998" height="831" preserveAspectRatio="xMidYMid meet" version="1.0"><defs><clipPath id="881cf6ed27"><path d="M 296.566406 91.132812 L 737.035156 91.132812 L 737.035156 531.601562 L 296.566406 531.601562 Z M 296.566406 91.132812 " clip-rule="nonzero"/></clipPath></defs><g clip-path="url(#881cf6ed27)"><path fill="#000000" d="M 516.800781 531.601562 C 395.359375 531.601562 296.566406 432.808594 296.566406 311.367188 C 296.566406 189.925781 395.359375 91.132812 516.800781 91.132812 C 638.242188 91.132812 737.035156 189.925781 737.035156 311.367188 C 737.035156 432.808594 638.242188 531.601562 516.800781 531.601562 Z M 516.800781 109.484375 C 405.488281 109.484375 314.917969 200.058594 314.917969 311.367188 C 314.917969 422.679688 405.488281 513.25 516.800781 513.25 C 628.109375 513.25 718.683594 422.679688 718.683594 311.367188 C 718.683594 200.058594 628.109375 109.484375 516.800781 109.484375 Z M 516.800781 109.484375 " fill-opacity="1" fill-rule="nonzero"/></g><path fill="#000000" d="M 580.484375 439.894531 C 561.839844 439.894531 542.660156 434.917969 527.335938 430.128906 C 497.199219 420.714844 469.359375 403.847656 446.839844 381.328125 C 416.558594 351.046875 395.890625 310.597656 390.164062 270.367188 C 387.597656 252.308594 386.089844 229.203125 397.394531 210.777344 C 407.96875 193.578125 427.074219 182.898438 447.28125 182.898438 C 450.804688 182.898438 454.21875 183.28125 457.503906 183.832031 C 457.667969 183.871094 457.851562 183.886719 458.015625 183.945312 C 469.394531 186.054688 478.40625 195.800781 480.003906 207.746094 L 487.675781 265.101562 C 489.289062 277.214844 482.867188 289.199219 472.019531 294.246094 C 470.828125 294.796875 469.613281 295.328125 468.367188 295.804688 C 474.773438 309.828125 483.5625 322.472656 494.613281 333.519531 C 505.660156 344.566406 518.304688 353.378906 532.34375 359.78125 C 532.804688 358.554688 533.335938 357.324219 533.867188 356.128906 C 538.933594 345.285156 550.9375 338.824219 563.050781 340.492188 L 620.402344 348.164062 C 632.441406 349.761719 642.261719 358.9375 644.28125 370.464844 C 644.886719 373.894531 645.269531 377.328125 645.269531 380.871094 C 645.269531 399.9375 635.964844 417.851562 620.367188 428.789062 C 608.710938 436.976562 594.761719 439.894531 580.484375 439.894531 Z M 447.28125 201.25 C 433.421875 201.25 420.28125 208.574219 413.03125 220.375 C 404.792969 233.808594 406.1875 252.765625 408.335938 267.78125 C 413.511719 304.136719 432.265625 340.804688 459.816406 368.335938 C 480.242188 388.761719 505.476562 404.070312 532.804688 412.585938 C 569.472656 424.019531 594.671875 424.421875 609.832031 413.757812 C 620.367188 406.378906 626.917969 393.753906 626.917969 380.871094 C 626.917969 378.355469 626.605469 375.96875 626.21875 373.675781 C 625.558594 369.859375 622.183594 366.886719 618 366.335938 L 560.644531 358.644531 C 556.460938 358.1875 552.238281 360.203125 550.570312 363.839844 C 549.136719 366.902344 548.109375 370.242188 547.488281 373.75 C 547.007812 376.429688 545.375 378.742188 543.027344 380.117188 C 540.675781 381.457031 537.832031 381.714844 535.300781 380.777344 C 515.039062 373.328125 497.015625 361.785156 481.710938 346.476562 C 466.402344 331.1875 454.859375 313.148438 447.40625 292.867188 C 446.472656 290.316406 446.710938 287.492188 448.070312 285.125 C 449.425781 282.773438 451.757812 281.140625 454.4375 280.683594 C 457.925781 280.074219 461.265625 279.03125 464.328125 277.597656 C 467.964844 275.910156 470.109375 271.78125 469.542969 267.523438 L 461.816406 210.167969 C 461.265625 205.96875 458.273438 202.589844 454.566406 201.964844 C 453.941406 201.835938 453.316406 201.671875 452.730469 201.433594 C 452.179688 201.582031 449.777344 201.25 447.28125 201.25 Z M 447.28125 201.25 " fill-opacity="1" fill-rule="nonzero"/></svg>