<svg xmlns="http://www.w3.org/2000/svg" xmlns:xlink="http://www.w3.org/1999/xlink" width="1366" zoomAndPan="magnify" viewBox="0 0 1024.5 623.24998" height="831" preserveAspectRatio="xMidYMid meet" version="1.0"><defs><clipPath id="efd10187b8"><path d="M 225.003906 99.589844 L 798.8125 99.589844 L 798.8125 522.832031 L 225.003906 522.832031 Z M 225.003906 99.589844 " clip-rule="nonzero"/></clipPath></defs><g clip-path="url(#efd10187b8)"><path fill="#000000" d="M 320.792969 99.589844 C 268.210938 99.589844 225.234375 142.570312 225.234375 195.160156 L 225.234375 427.261719 C 225.234375 479.851562 268.210938 522.832031 320.792969 522.832031 L 703.019531 522.832031 C 755.605469 522.832031 798.578125 479.851562 798.578125 427.261719 L 798.578125 195.160156 C 798.578125 142.570312 755.605469 99.589844 703.019531 99.589844 Z M 320.792969 140.550781 L 703.019531 140.550781 C 733.625 140.550781 757.625 164.554688 757.625 195.160156 L 757.625 427.261719 C 757.625 457.871094 733.625 481.871094 703.019531 481.871094 L 320.792969 481.871094 C 290.1875 481.871094 266.1875 457.871094 266.1875 427.261719 L 266.1875 195.160156 C 266.1875 164.554688 290.1875 140.550781 320.792969 140.550781 Z M 464.769531 201.988281 C 464.085938 201.964844 463.402344 201.980469 462.71875 202.027344 C 462.035156 202.074219 461.359375 202.15625 460.683594 202.269531 C 460.007812 202.386719 459.34375 202.535156 458.683594 202.714844 C 458.023438 202.898438 457.375 203.113281 456.738281 203.359375 C 456.097656 203.609375 455.472656 203.886719 454.863281 204.195312 C 454.253906 204.503906 453.660156 204.84375 453.085938 205.214844 C 452.507812 205.582031 451.953125 205.980469 451.417969 206.40625 C 450.878906 206.828125 450.367188 207.28125 449.875 207.757812 C 449.382812 208.234375 448.917969 208.734375 448.476562 209.253906 C 448.035156 209.777344 447.621094 210.324219 447.234375 210.886719 C 446.847656 211.453125 446.492188 212.035156 446.164062 212.636719 C 445.835938 213.234375 445.535156 213.851562 445.269531 214.480469 C 445.003906 215.109375 444.769531 215.753906 444.566406 216.40625 C 444.363281 217.058594 444.195312 217.722656 444.058594 218.394531 C 443.925781 219.0625 443.820312 219.738281 443.753906 220.421875 C 443.6875 221.101562 443.652344 221.785156 443.652344 222.46875 L 443.652344 399.957031 C 443.644531 401.214844 443.753906 402.464844 443.976562 403.703125 C 444.203125 404.941406 444.535156 406.152344 444.984375 407.328125 C 445.429688 408.507812 445.980469 409.632812 446.636719 410.710938 C 447.289062 411.785156 448.035156 412.792969 448.878906 413.730469 C 449.71875 414.667969 450.636719 415.523438 451.632812 416.292969 C 452.632812 417.058594 453.691406 417.730469 454.8125 418.304688 C 455.933594 418.875 457.097656 419.34375 458.304688 419.699219 C 459.511719 420.058594 460.742188 420.304688 461.996094 420.433594 C 464.058594 420.660156 466.109375 420.570312 468.148438 420.167969 C 470.183594 419.769531 472.113281 419.074219 473.941406 418.085938 L 637.753906 329.34375 C 639.378906 328.464844 640.859375 327.390625 642.195312 326.109375 C 643.527344 324.832031 644.667969 323.402344 645.617188 321.816406 C 646.5625 320.226562 647.28125 318.542969 647.773438 316.761719 C 648.261719 314.980469 648.507812 313.164062 648.507812 311.316406 C 648.507812 309.46875 648.261719 307.65625 647.773438 305.875 C 647.28125 304.09375 646.5625 302.410156 645.617188 300.820312 C 644.667969 299.234375 643.527344 297.800781 642.195312 296.523438 C 640.859375 295.246094 639.378906 294.167969 637.753906 293.292969 L 473.941406 204.546875 C 471.085938 202.964844 468.03125 202.109375 464.769531 201.988281 Z M 484.605469 257.027344 L 584.855469 311.210938 L 484.605469 365.609375 Z M 484.605469 257.027344 " fill-opacity="1" fill-rule="nonzero"/></g></svg>