<svg xmlns="http://www.w3.org/2000/svg" xmlns:xlink="http://www.w3.org/1999/xlink" width="1366" zoomAndPan="magnify" viewBox="0 0 1024.5 623.24998" height="831" preserveAspectRatio="xMidYMid meet" version="1.0"><defs><clipPath id="cacd826cb2"><path d="M 299.476562 98.726562 L 724.214844 98.726562 L 724.214844 523.464844 L 299.476562 523.464844 Z M 299.476562 98.726562 " clip-rule="nonzero"/></clipPath><clipPath id="65d29cc4c5"><path d="M 511.996094 98.726562 C 394.625 98.726562 299.476562 193.875 299.476562 311.246094 C 299.476562 428.621094 394.625 523.769531 511.996094 523.769531 C 629.371094 523.769531 724.519531 428.621094 724.519531 311.246094 C 724.519531 193.875 629.371094 98.726562 511.996094 98.726562 Z M 511.996094 98.726562 " clip-rule="nonzero"/></clipPath><clipPath id="27834a1676"><path d="M 409.105469 185.960938 L 615 185.960938 L 615 436.910156 L 409.105469 436.910156 Z M 409.105469 185.960938 " clip-rule="nonzero"/></clipPath></defs><g clip-path="url(#cacd826cb2)"><g clip-path="url(#65d29cc4c5)"><path stroke-linecap="butt" transform="matrix(0.749099, 0, 0, 0.749099, 299.476089, 98.726237)" fill="none" stroke-linejoin="miter" d="M 283.701014 0.000433918 C 127.01789 0.000433918 0.000632615 127.017691 0.000632615 283.700816 C 0.000632615 440.389154 127.01789 567.406412 283.701014 567.406412 C 440.389353 567.406412 567.406611 440.389154 567.406611 283.700816 C 567.406611 127.017691 440.389353 0.000433918 283.701014 0.000433918 Z M 283.701014 0.000433918 " stroke="#63f800" stroke-width="30" stroke-opacity="1" stroke-miterlimit="4"/></g></g><g clip-path="url(#27834a1676)"><path fill="#63f800" d="M 612.097656 219.757812 C 610.320312 218.175781 607.941406 217.4375 605.589844 217.6875 C 600.644531 218.253906 595.582031 218.539062 590.535156 218.539062 C 554.066406 218.539062 528.511719 204.585938 522.117188 190.796875 C 520.746094 187.847656 517.789062 185.960938 514.539062 185.960938 L 509.457031 185.960938 C 506.207031 185.960938 503.25 187.847656 501.878906 190.796875 C 495.484375 204.582031 469.929688 218.539062 433.460938 218.539062 C 428.414062 218.539062 423.351562 218.253906 418.410156 217.6875 C 416.027344 217.417969 413.675781 218.171875 411.902344 219.757812 C 410.125 221.339844 409.109375 223.609375 409.109375 225.988281 L 409.109375 276.269531 C 409.109375 344.46875 447.121094 405.550781 508.308594 435.675781 C 509.472656 436.25 510.738281 436.535156 512 436.535156 C 513.261719 436.535156 514.527344 436.25 515.6875 435.675781 C 576.878906 405.550781 614.886719 344.46875 614.886719 276.269531 L 614.886719 225.988281 C 614.886719 223.609375 613.871094 221.339844 612.097656 219.757812 Z M 598.183594 276.269531 C 598.183594 336.675781 565.265625 390.917969 512 418.8125 C 458.730469 390.914062 425.816406 336.671875 425.816406 276.269531 L 425.816406 235.050781 C 428.359375 235.179688 430.910156 235.242188 433.460938 235.242188 C 468.042969 235.242188 498.035156 223.78125 512 205.976562 C 525.960938 223.78125 555.953125 235.242188 590.535156 235.242188 C 593.085938 235.242188 595.636719 235.179688 598.183594 235.050781 Z M 575.957031 264.210938 C 579.15625 267.53125 579.0625 272.820312 575.738281 276.019531 L 503.179688 345.972656 C 501.621094 347.476562 499.542969 348.3125 497.382812 348.3125 C 497.292969 348.3125 497.199219 348.3125 497.109375 348.308594 C 494.855469 348.234375 492.726562 347.25 491.207031 345.582031 L 464.585938 316.351562 C 461.476562 312.9375 461.726562 307.65625 465.136719 304.550781 C 468.546875 301.445312 473.832031 301.695312 476.933594 305.101562 L 497.773438 327.980469 L 564.148438 263.992188 C 567.46875 260.796875 572.753906 260.886719 575.957031 264.210938 Z M 575.957031 264.210938 " fill-opacity="1" fill-rule="nonzero"/></g></svg>