<svg xmlns="http://www.w3.org/2000/svg" xmlns:xlink="http://www.w3.org/1999/xlink" width="1366" zoomAndPan="magnify" viewBox="0 0 1024.5 623.24998" height="831" preserveAspectRatio="xMidYMid meet" version="1.0"><defs><clipPath id="13d9c2723e"><path d="M 299.726562 98.976562 L 724.265625 98.976562 L 724.265625 523.515625 L 299.726562 523.515625 Z M 299.726562 98.976562 " clip-rule="nonzero"/></clipPath><clipPath id="273ece687a"><path d="M 511.996094 98.976562 C 394.761719 98.976562 299.726562 194.011719 299.726562 311.246094 C 299.726562 428.480469 394.761719 523.515625 511.996094 523.515625 C 629.230469 523.515625 724.265625 428.480469 724.265625 311.246094 C 724.265625 194.011719 629.230469 98.976562 511.996094 98.976562 Z M 511.996094 98.976562 " clip-rule="nonzero"/></clipPath><clipPath id="dfd6edbe8a"><path d="M 633 287 L 649.96875 287 L 649.96875 369 L 633 369 Z M 633 287 " clip-rule="nonzero"/></clipPath><clipPath id="739e31dd40"><path d="M 374.300781 287 L 391 287 L 391 369 L 374.300781 369 Z M 374.300781 287 " clip-rule="nonzero"/></clipPath><clipPath id="f028b60202"><path d="M 415 181.8125 L 609 181.8125 L 609 261 L 415 261 Z M 415 181.8125 " clip-rule="nonzero"/></clipPath></defs><g clip-path="url(#13d9c2723e)"><g clip-path="url(#273ece687a)"><path stroke-linecap="butt" transform="matrix(0.749099, 0, 0, 0.749099, 299.726743, 98.976916)" fill="none" stroke-linejoin="miter" d="M 283.366406 -0.000471601 C 126.865793 -0.000471601 -0.000240904 126.865563 -0.000240904 283.366176 C -0.000240904 439.866789 126.865793 566.732823 283.366406 566.732823 C 439.867019 566.732823 566.733054 439.866789 566.733054 283.366176 C 566.733054 126.865563 439.867019 -0.000471601 283.366406 -0.000471601 Z M 283.366406 -0.000471601 " stroke="#000000" stroke-width="30" stroke-opacity="1" stroke-miterlimit="4"/></g></g><g clip-path="url(#dfd6edbe8a)"><path fill="#000000" d="M 633.429688 287.203125 L 633.429688 368.695312 C 643.378906 360.695312 649.96875 345.625 649.96875 327.945312 C 649.96875 310.265625 643.378906 295.199219 633.429688 287.203125 Z M 633.429688 287.203125 " fill-opacity="1" fill-rule="nonzero"/></g><path fill="#000000" d="M 418.40625 385.851562 C 409.289062 385.851562 401.867188 378.429688 401.867188 369.308594 L 401.867188 286.59375 C 401.867188 277.472656 409.289062 270.046875 418.40625 270.046875 C 427.527344 270.046875 434.949219 277.472656 434.949219 286.59375 L 434.949219 369.308594 C 434.949219 378.429688 427.527344 385.851562 418.40625 385.851562 Z M 418.40625 385.851562 " fill-opacity="1" fill-rule="nonzero"/><g clip-path="url(#739e31dd40)"><path fill="#000000" d="M 390.839844 287.203125 C 380.890625 295.199219 374.300781 310.269531 374.300781 327.949219 C 374.300781 345.628906 380.890625 360.695312 390.839844 368.695312 Z M 390.839844 287.203125 " fill-opacity="1" fill-rule="nonzero"/></g><g clip-path="url(#f028b60202)"><path fill="#000000" d="M 605.863281 259.019531 C 606.898438 259.019531 607.886719 259.210938 608.898438 259.328125 C 598.949219 215.03125 559.375 181.816406 512.136719 181.816406 C 464.890625 181.816406 425.320312 215.03125 415.371094 259.328125 C 416.378906 259.210938 417.371094 259.019531 418.40625 259.019531 C 421.234375 259.019531 423.910156 259.570312 426.480469 260.363281 C 435.828125 221.691406 470.636719 192.847656 512.136719 192.847656 C 553.621094 192.847656 588.441406 221.691406 597.789062 260.363281 C 600.359375 259.570312 603.027344 259.019531 605.863281 259.019531 Z M 605.863281 259.019531 " fill-opacity="1" fill-rule="nonzero"/></g><path fill="#000000" d="M 605.863281 385.851562 C 596.742188 385.851562 589.320312 378.429688 589.320312 369.308594 L 589.320312 286.59375 C 589.320312 277.472656 596.742188 270.046875 605.863281 270.046875 C 614.980469 270.046875 622.402344 277.472656 622.402344 286.59375 L 622.402344 369.308594 C 622.402344 378.429688 614.980469 385.851562 605.863281 385.851562 Z M 605.863281 385.851562 " fill-opacity="1" fill-rule="nonzero"/><path fill="#000000" d="M 528.675781 440.996094 L 501.109375 440.996094 C 491.988281 440.996094 484.566406 433.574219 484.566406 424.453125 C 484.566406 415.332031 491.988281 407.910156 501.109375 407.910156 L 528.675781 407.910156 C 537.792969 407.910156 545.214844 415.332031 545.214844 424.453125 C 545.214844 433.574219 537.792969 440.996094 528.675781 440.996094 Z M 528.675781 440.996094 " fill-opacity="1" fill-rule="nonzero"/><path fill="#000000" d="M 605.863281 396.882812 C 603.148438 396.882812 600.574219 396.363281 598.097656 395.628906 C 593.238281 410.601562 580.601562 418.9375 561.753906 418.9375 L 555.679688 418.9375 C 556.050781 420.71875 556.242188 422.5625 556.242188 424.453125 C 556.242188 426.34375 556.050781 428.1875 555.679688 429.96875 L 561.753906 429.96875 C 586.527344 429.96875 603.691406 417.503906 609.339844 396.535156 C 608.1875 396.675781 607.054688 396.882812 605.863281 396.882812 Z M 605.863281 396.882812 " fill-opacity="1" fill-rule="nonzero"/></svg>