<svg xmlns="http://www.w3.org/2000/svg" xmlns:xlink="http://www.w3.org/1999/xlink" width="1366" zoomAndPan="magnify" viewBox="0 0 1024.5 623.24998" height="831" preserveAspectRatio="xMidYMid meet" version="1.0"><defs><clipPath id="ae76d32d4b"><path d="M 291.375 90.625 L 732.59375 90.625 L 732.59375 531.84375 L 291.375 531.84375 Z M 291.375 90.625 " clip-rule="nonzero"/></clipPath><clipPath id="4920c227e8"><path d="M 511.996094 90.625 C 390.148438 90.625 291.375 189.398438 291.375 311.246094 C 291.375 433.089844 390.148438 531.867188 511.996094 531.867188 C 633.839844 531.867188 732.617188 433.089844 732.617188 311.246094 C 732.617188 189.398438 633.839844 90.625 511.996094 90.625 Z M 511.996094 90.625 " clip-rule="nonzero"/></clipPath><clipPath id="03a6e87f10"><path d="M 381.304688 141.453125 L 642.429688 141.453125 L 642.429688 480.734375 L 381.304688 480.734375 Z M 381.304688 141.453125 " clip-rule="nonzero"/></clipPath></defs><g clip-path="url(#ae76d32d4b)"><g clip-path="url(#4920c227e8)"><path stroke-linecap="butt" transform="matrix(0.749099, 0, 0, 0.749099, 291.373798, 90.623954)" fill="none" stroke-linejoin="miter" d="M 294.517069 0.0013957 C 131.858012 0.0013957 0.001604 131.857803 0.001604 294.51686 C 0.001604 457.170703 131.858012 589.032325 294.517069 589.032325 C 457.170911 589.032325 589.032533 457.170703 589.032533 294.51686 C 589.032533 131.857803 457.170911 0.0013957 294.517069 0.0013957 Z M 294.517069 0.0013957 " stroke="#000000" stroke-width="52" stroke-opacity="1" stroke-miterlimit="4"/></g></g><g clip-path="url(#03a6e87f10)"><path fill="#000000" d="M 511.773438 141.453125 C 540.964844 141.453125 567.976562 150.867188 589.917969 166.828125 C 612.417969 183.203125 629.589844 206.476562 638.328125 233.5625 C 648.609375 265.421875 638.535156 303.96875 619.527344 341.847656 C 592.363281 396.003906 546.863281 449.261719 517.933594 478.1875 C 514.535156 481.585938 509.011719 481.585938 505.613281 478.1875 L 505.539062 478.113281 C 475.992188 448.550781 430.105469 395.066406 403.242188 340.523438 C 384.421875 302.308594 374.863281 263.351562 386.144531 230.820312 C 395.304688 204.449219 412.511719 181.855469 434.808594 166.011719 C 456.554688 150.542969 483.113281 141.453125 511.773438 141.453125 Z M 579.699219 180.914062 C 560.652344 167.054688 537.167969 158.871094 511.773438 158.871094 C 486.824219 158.871094 463.726562 166.753906 444.882812 180.160156 C 425.453125 193.964844 410.492188 213.597656 402.554688 236.472656 C 393.019531 263.933594 401.863281 298.394531 418.832031 332.832031 C 442.898438 381.691406 483.167969 430 511.773438 459.59375 C 539.863281 430.484375 579.742188 382.476562 604.015625 334.09375 C 621.167969 299.902344 630.464844 265.765625 621.792969 238.867188 C 614.207031 215.375 599.28125 195.164062 579.699219 180.914062 " fill-opacity="1" fill-rule="nonzero"/></g><path fill="#000000" d="M 511.773438 192.800781 C 530.5 192.800781 547.457031 200.394531 559.734375 212.667969 C 572.007812 224.941406 579.605469 241.898438 579.605469 260.621094 C 579.605469 279.34375 572.007812 296.300781 559.734375 308.574219 C 547.457031 320.847656 530.5 328.429688 511.773438 328.429688 C 493.046875 328.429688 476.089844 320.847656 463.8125 308.574219 C 451.539062 296.300781 443.945312 279.34375 443.945312 260.621094 C 443.945312 241.898438 451.539062 224.941406 463.8125 212.667969 C 476.089844 200.394531 493.046875 192.800781 511.773438 192.800781 Z M 547.414062 224.984375 C 538.300781 215.863281 525.6875 210.21875 511.773438 210.21875 C 497.859375 210.21875 485.257812 215.863281 476.132812 224.984375 C 467.019531 234.101562 461.375 246.707031 461.375 260.621094 C 461.375 274.535156 467.019531 287.132812 476.132812 296.257812 C 485.257812 305.371094 497.859375 311.011719 511.773438 311.011719 C 525.6875 311.011719 538.300781 305.371094 547.414062 296.257812 C 556.539062 287.132812 562.171875 274.535156 562.171875 260.621094 C 562.171875 246.707031 556.539062 234.101562 547.414062 224.984375 " fill-opacity="1" fill-rule="nonzero"/></svg>