<svg xmlns="http://www.w3.org/2000/svg" xmlns:xlink="http://www.w3.org/1999/xlink" width="1366" zoomAndPan="magnify" viewBox="0 0 1024.5 623.24998" height="831" preserveAspectRatio="xMidYMid meet" version="1.0"><defs><clipPath id="1bcdf39c9e"><path d="M 409.121094 94 L 615 94 L 615 528.738281 L 409.121094 528.738281 Z M 409.121094 94 " clip-rule="nonzero"/></clipPath></defs><g clip-path="url(#1bcdf39c9e)"><path fill="#000000" d="M 567.40625 165.742188 L 614.875 165.742188 L 614.875 94.175781 L 554.261719 94.175781 L 554.261719 94.449219 C 474.570312 97.367188 458.140625 142.007812 456.769531 189.203125 L 456.585938 189.203125 L 456.585938 238.859375 L 409.121094 238.859375 L 409.121094 310.519531 L 456.585938 310.519531 L 456.585938 528.324219 L 541.757812 528.324219 L 541.757812 310.519531 L 602.828125 310.519531 L 614.875 238.859375 L 541.757812 238.859375 L 541.757812 194.40625 C 541.757812 178.613281 552.347656 165.742188 567.40625 165.742188 Z M 567.40625 165.742188 " fill-opacity="1" fill-rule="nonzero"/></g></svg>