<svg xmlns="http://www.w3.org/2000/svg" xmlns:xlink="http://www.w3.org/1999/xlink" width="1366" zoomAndPan="magnify" viewBox="0 0 1024.5 623.24998" height="831" preserveAspectRatio="xMidYMid meet" version="1.0"><defs><clipPath id="9794158942"><path d="M 309.546875 108.796875 L 714.808594 108.796875 L 714.808594 514.058594 L 309.546875 514.058594 Z M 309.546875 108.796875 " clip-rule="nonzero"/></clipPath></defs><path fill="#000000" d="M 650.703125 246.628906 C 650.703125 246.308594 650.703125 246 650.609375 245.679688 C 650.539062 244.320312 650.410156 242.964844 650.214844 241.617188 C 650.019531 240.269531 649.757812 238.933594 649.4375 237.609375 C 649.113281 236.289062 648.730469 234.980469 648.285156 233.695312 C 647.835938 232.410156 647.332031 231.144531 646.765625 229.90625 C 646.199219 228.667969 645.574219 227.460938 644.894531 226.28125 C 644.210938 225.101562 643.476562 223.957031 642.6875 222.847656 C 641.894531 221.738281 641.054688 220.667969 640.164062 219.636719 C 639.273438 218.605469 638.335938 217.621094 637.347656 216.679688 C 636.363281 215.742188 635.335938 214.847656 634.265625 214.007812 C 633.195312 213.164062 632.089844 212.375 630.945312 211.636719 C 629.796875 210.898438 628.621094 210.214844 627.410156 209.589844 C 626.203125 208.964844 624.964844 208.398438 623.703125 207.886719 C 622.4375 207.378906 621.152344 206.933594 619.847656 206.546875 C 618.539062 206.160156 617.21875 205.835938 615.882812 205.574219 C 614.546875 205.316406 613.199219 205.117188 611.84375 204.984375 C 610.488281 204.851562 609.128906 204.785156 607.765625 204.78125 L 416.589844 204.78125 C 415.226562 204.785156 413.867188 204.851562 412.511719 204.984375 C 411.15625 205.117188 409.8125 205.316406 408.476562 205.574219 C 407.136719 205.835938 405.816406 206.160156 404.511719 206.546875 C 403.203125 206.933594 401.917969 207.378906 400.65625 207.886719 C 399.390625 208.398438 398.15625 208.964844 396.945312 209.589844 C 395.734375 210.214844 394.558594 210.898438 393.414062 211.636719 C 392.269531 212.375 391.160156 213.164062 390.089844 214.007812 C 389.019531 214.847656 387.992188 215.742188 387.007812 216.679688 C 386.023438 217.621094 385.085938 218.605469 384.191406 219.636719 C 383.300781 220.667969 382.460938 221.738281 381.671875 222.847656 C 380.878906 223.957031 380.144531 225.101562 379.464844 226.28125 C 378.78125 227.460938 378.160156 228.667969 377.59375 229.90625 C 377.027344 231.144531 376.519531 232.410156 376.074219 233.695312 C 375.625 234.980469 375.242188 236.289062 374.921875 237.609375 C 374.597656 238.933594 374.339844 240.269531 374.144531 241.617188 C 373.949219 242.964844 373.816406 244.320312 373.75 245.679688 C 373.75 246.011719 373.683594 246.308594 373.652344 246.640625 C 373.621094 246.96875 373.535156 247.441406 373.535156 247.835938 L 373.535156 375.023438 C 373.539062 376.433594 373.609375 377.839844 373.75 379.242188 C 373.886719 380.644531 374.097656 382.035156 374.371094 383.417969 C 374.648438 384.800781 374.992188 386.167969 375.402344 387.515625 C 375.8125 388.863281 376.289062 390.1875 376.828125 391.492188 C 377.367188 392.792969 377.96875 394.066406 378.636719 395.308594 C 379.300781 396.550781 380.023438 397.757812 380.808594 398.929688 C 381.59375 400.101562 382.429688 401.230469 383.324219 402.320312 C 384.21875 403.410156 385.164062 404.453125 386.160156 405.449219 C 387.160156 406.449219 388.203125 407.394531 389.292969 408.289062 C 390.378906 409.183594 391.511719 410.019531 392.683594 410.804688 C 393.855469 411.585938 395.0625 412.3125 396.304688 412.976562 C 397.546875 413.640625 398.820312 414.246094 400.121094 414.785156 C 401.425781 415.324219 402.75 415.800781 404.097656 416.210938 C 405.445312 416.621094 406.8125 416.964844 408.195312 417.242188 C 409.578125 417.515625 410.96875 417.726562 412.371094 417.863281 C 413.773438 418.003906 415.179688 418.074219 416.589844 418.078125 L 607.765625 418.078125 C 609.175781 418.074219 610.582031 418.003906 611.984375 417.863281 C 613.386719 417.722656 614.78125 417.515625 616.160156 417.238281 C 617.542969 416.960938 618.910156 416.617188 620.257812 416.207031 C 621.605469 415.796875 622.929688 415.324219 624.234375 414.78125 C 625.535156 414.242188 626.808594 413.640625 628.050781 412.972656 C 629.292969 412.308594 630.5 411.585938 631.671875 410.800781 C 632.84375 410.019531 633.972656 409.179688 635.0625 408.285156 C 636.152344 407.390625 637.195312 406.445312 638.191406 405.449219 C 639.1875 404.449219 640.132812 403.40625 641.027344 402.320312 C 641.921875 401.230469 642.761719 400.097656 643.546875 398.925781 C 644.328125 397.753906 645.054688 396.546875 645.71875 395.304688 C 646.382812 394.0625 646.984375 392.789062 647.527344 391.488281 C 648.066406 390.1875 648.542969 388.863281 648.953125 387.511719 C 649.363281 386.164062 649.707031 384.800781 649.984375 383.417969 C 650.257812 382.035156 650.46875 380.644531 650.609375 379.242188 C 650.746094 377.839844 650.820312 376.433594 650.820312 375.023438 L 650.820312 247.835938 C 650.820312 247.441406 650.714844 247.046875 650.703125 246.628906 Z M 416.589844 226.109375 L 607.765625 226.109375 C 608.933594 226.113281 610.097656 226.210938 611.25 226.402344 C 612.402344 226.59375 613.53125 226.878906 614.636719 227.253906 C 615.746094 227.628906 616.8125 228.085938 617.847656 228.632812 C 618.878906 229.183594 619.859375 229.808594 620.792969 230.515625 C 621.722656 231.21875 622.589844 231.996094 623.398438 232.839844 C 624.203125 233.6875 624.933594 234.59375 625.59375 235.558594 C 626.253906 236.519531 626.832031 237.53125 627.328125 238.589844 C 627.824219 239.648438 628.234375 240.738281 628.554688 241.863281 L 512.179688 309.742188 L 395.804688 241.863281 C 396.125 240.738281 396.53125 239.648438 397.027344 238.589844 C 397.523438 237.53125 398.101562 236.519531 398.761719 235.558594 C 399.421875 234.59375 400.152344 233.6875 400.960938 232.839844 C 401.765625 231.996094 402.632812 231.21875 403.566406 230.515625 C 404.496094 229.808594 405.476562 229.183594 406.511719 228.632812 C 407.542969 228.085938 408.613281 227.628906 409.71875 227.253906 C 410.828125 226.878906 411.957031 226.59375 413.109375 226.402344 C 414.261719 226.210938 415.421875 226.113281 416.589844 226.109375 Z M 607.765625 396.746094 L 416.589844 396.746094 C 415.878906 396.746094 415.167969 396.710938 414.460938 396.640625 C 413.753906 396.570312 413.050781 396.464844 412.355469 396.324219 C 411.65625 396.183594 410.96875 396.011719 410.289062 395.804688 C 409.605469 395.597656 408.9375 395.359375 408.28125 395.085938 C 407.625 394.8125 406.984375 394.507812 406.355469 394.171875 C 405.726562 393.835938 405.121094 393.472656 404.527344 393.074219 C 403.9375 392.679688 403.367188 392.257812 402.816406 391.804688 C 402.265625 391.355469 401.742188 390.878906 401.238281 390.375 C 400.734375 389.871094 400.257812 389.34375 399.808594 388.796875 C 399.355469 388.246094 398.933594 387.675781 398.535156 387.085938 C 398.140625 386.492188 397.777344 385.882812 397.441406 385.257812 C 397.105469 384.628906 396.800781 383.988281 396.527344 383.332031 C 396.253906 382.675781 396.015625 382.003906 395.808594 381.324219 C 395.601562 380.644531 395.429688 379.957031 395.289062 379.257812 C 395.148438 378.5625 395.042969 377.859375 394.972656 377.152344 C 394.902344 376.445312 394.867188 375.734375 394.867188 375.023438 L 394.867188 266.007812 L 506.847656 331.308594 C 507.660156 331.785156 508.527344 332.144531 509.4375 332.390625 C 510.347656 332.636719 511.277344 332.761719 512.222656 332.761719 C 513.164062 332.761719 514.09375 332.636719 515.003906 332.390625 C 515.917969 332.144531 516.78125 331.785156 517.597656 331.308594 L 629.492188 266.007812 L 629.492188 375.023438 C 629.488281 375.734375 629.453125 376.445312 629.382812 377.152344 C 629.3125 377.859375 629.207031 378.5625 629.070312 379.257812 C 628.929688 379.957031 628.753906 380.644531 628.546875 381.324219 C 628.339844 382.003906 628.101562 382.675781 627.828125 383.332031 C 627.554688 383.988281 627.253906 384.628906 626.917969 385.257812 C 626.582031 385.882812 626.214844 386.492188 625.820312 387.085938 C 625.425781 387.675781 625 388.246094 624.550781 388.796875 C 624.097656 389.34375 623.621094 389.871094 623.117188 390.375 C 622.617188 390.878906 622.089844 391.355469 621.539062 391.804688 C 620.992188 392.257812 620.421875 392.679688 619.828125 393.074219 C 619.238281 393.472656 618.628906 393.835938 618 394.171875 C 617.375 394.507812 616.730469 394.8125 616.074219 395.085938 C 615.417969 395.355469 614.75 395.597656 614.070312 395.804688 C 613.390625 396.011719 612.699219 396.183594 612.003906 396.324219 C 611.304688 396.464844 610.601562 396.570312 609.894531 396.640625 C 609.1875 396.710938 608.476562 396.746094 607.765625 396.746094 Z M 607.765625 396.746094 " fill-opacity="1" fill-rule="nonzero"/><g clip-path="url(#9794158942)"><path fill="#000000" d="M 512.179688 108.796875 C 508.863281 108.796875 505.546875 108.878906 502.234375 109.042969 C 498.921875 109.203125 495.617188 109.449219 492.316406 109.773438 C 489.015625 110.097656 485.726562 110.503906 482.445312 110.992188 C 479.164062 111.476562 475.898438 112.042969 472.648438 112.691406 C 469.394531 113.339844 466.160156 114.0625 462.941406 114.871094 C 459.726562 115.675781 456.53125 116.558594 453.359375 117.523438 C 450.183594 118.484375 447.035156 119.523438 443.914062 120.640625 C 440.792969 121.757812 437.699219 122.953125 434.636719 124.222656 C 431.570312 125.492188 428.539062 126.835938 425.542969 128.253906 C 422.542969 129.671875 419.582031 131.160156 416.660156 132.722656 C 413.734375 134.289062 410.851562 135.921875 408.003906 137.625 C 405.160156 139.332031 402.359375 141.105469 399.601562 142.945312 C 396.84375 144.789062 394.136719 146.699219 391.472656 148.671875 C 388.808594 150.648438 386.195312 152.6875 383.628906 154.792969 C 381.066406 156.894531 378.558594 159.0625 376.101562 161.289062 C 373.644531 163.515625 371.242188 165.800781 368.898438 168.148438 C 366.550781 170.492188 364.265625 172.894531 362.039062 175.351562 C 359.8125 177.808594 357.644531 180.316406 355.542969 182.878906 C 353.4375 185.445312 351.398438 188.058594 349.421875 190.722656 C 347.449219 193.386719 345.539062 196.09375 343.695312 198.851562 C 341.855469 201.609375 340.082031 204.410156 338.375 207.253906 C 336.671875 210.101562 335.035156 212.984375 333.472656 215.910156 C 331.910156 218.832031 330.421875 221.792969 329.003906 224.792969 C 327.585938 227.789062 326.242188 230.820312 324.972656 233.886719 C 323.703125 236.949219 322.507812 240.042969 321.390625 243.164062 C 320.273438 246.285156 319.234375 249.433594 318.273438 252.609375 C 317.308594 255.78125 316.425781 258.976562 315.621094 262.191406 C 314.8125 265.410156 314.085938 268.644531 313.441406 271.898438 C 312.792969 275.148438 312.226562 278.417969 311.742188 281.695312 C 311.253906 284.976562 310.847656 288.265625 310.523438 291.566406 C 310.199219 294.867188 309.953125 298.171875 309.792969 301.484375 C 309.628906 304.796875 309.546875 308.113281 309.546875 311.429688 C 309.546875 314.746094 309.628906 318.058594 309.792969 321.371094 C 309.953125 324.683594 310.199219 327.988281 310.523438 331.289062 C 310.847656 334.589844 311.253906 337.878906 311.742188 341.160156 C 312.226562 344.441406 312.792969 347.707031 313.441406 350.960938 C 314.085938 354.210938 314.8125 357.445312 315.621094 360.664062 C 316.425781 363.878906 317.308594 367.074219 318.273438 370.25 C 319.234375 373.421875 320.273438 376.570312 321.390625 379.691406 C 322.507812 382.816406 323.703125 385.910156 324.972656 388.972656 C 326.242188 392.035156 327.585938 395.066406 329.003906 398.066406 C 330.421875 401.0625 331.910156 404.023438 333.472656 406.949219 C 335.035156 409.871094 336.671875 412.757812 338.375 415.601562 C 340.082031 418.445312 341.855469 421.246094 343.695312 424.003906 C 345.539062 426.761719 347.449219 429.472656 349.421875 432.136719 C 351.398438 434.800781 353.4375 437.414062 355.542969 439.976562 C 357.644531 442.539062 359.8125 445.050781 362.039062 447.507812 C 364.265625 449.964844 366.550781 452.367188 368.898438 454.710938 C 371.242188 457.054688 373.644531 459.339844 376.101562 461.570312 C 378.558594 463.796875 381.066406 465.960938 383.628906 468.066406 C 386.195312 470.167969 388.808594 472.207031 391.472656 474.183594 C 394.136719 476.160156 396.84375 478.066406 399.601562 479.910156 C 402.359375 481.753906 405.160156 483.527344 408.003906 485.230469 C 410.851562 486.9375 413.734375 488.570312 416.660156 490.132812 C 419.582031 491.695312 422.542969 493.1875 425.542969 494.605469 C 428.539062 496.023438 431.570312 497.367188 434.636719 498.636719 C 437.699219 499.90625 440.792969 501.097656 443.914062 502.214844 C 447.035156 503.332031 450.183594 504.371094 453.359375 505.335938 C 456.53125 506.296875 459.726562 507.179688 462.941406 507.988281 C 466.160156 508.792969 469.394531 509.519531 472.648438 510.167969 C 475.898438 510.8125 479.164062 511.378906 482.445312 511.867188 C 485.726562 512.351562 489.015625 512.757812 492.316406 513.085938 C 495.617188 513.410156 498.921875 513.652344 502.234375 513.816406 C 505.546875 513.976562 508.863281 514.058594 512.179688 514.058594 C 515.496094 514.058594 518.808594 513.976562 522.121094 513.816406 C 525.433594 513.652344 528.738281 513.410156 532.039062 513.085938 C 535.339844 512.757812 538.628906 512.351562 541.910156 511.867188 C 545.191406 511.378906 548.457031 510.8125 551.710938 510.167969 C 554.960938 509.519531 558.195312 508.792969 561.414062 507.988281 C 564.628906 507.179688 567.824219 506.296875 571 505.335938 C 574.171875 504.371094 577.320312 503.332031 580.441406 502.214844 C 583.566406 501.097656 586.660156 499.90625 589.722656 498.636719 C 592.785156 497.367188 595.816406 496.023438 598.8125 494.605469 C 601.8125 493.1875 604.773438 491.695312 607.699219 490.132812 C 610.621094 488.570312 613.507812 486.9375 616.351562 485.230469 C 619.195312 483.527344 621.996094 481.753906 624.753906 479.910156 C 627.511719 478.066406 630.222656 476.160156 632.886719 474.183594 C 635.550781 472.207031 638.164062 470.167969 640.726562 468.066406 C 643.289062 465.960938 645.800781 463.796875 648.257812 461.570312 C 650.714844 459.339844 653.117188 457.054688 655.460938 454.710938 C 657.804688 452.367188 660.089844 449.964844 662.316406 447.507812 C 664.546875 445.050781 666.710938 442.539062 668.8125 439.976562 C 670.917969 437.414062 672.957031 434.800781 674.933594 432.136719 C 676.910156 429.472656 678.816406 426.761719 680.660156 424.003906 C 682.503906 421.246094 684.277344 418.445312 685.980469 415.601562 C 687.6875 412.757812 689.320312 409.871094 690.882812 406.949219 C 692.445312 404.023438 693.9375 401.0625 695.355469 398.066406 C 696.773438 395.066406 698.117188 392.035156 699.386719 388.972656 C 700.652344 385.910156 701.847656 382.816406 702.964844 379.691406 C 704.082031 376.570312 705.121094 373.421875 706.085938 370.25 C 707.046875 367.074219 707.929688 363.878906 708.738281 360.664062 C 709.542969 357.445312 710.269531 354.210938 710.917969 350.960938 C 711.5625 347.707031 712.128906 344.441406 712.617188 341.160156 C 713.101562 337.878906 713.507812 334.589844 713.832031 331.289062 C 714.160156 327.988281 714.402344 324.683594 714.566406 321.371094 C 714.726562 318.058594 714.808594 314.746094 714.808594 311.429688 C 714.804688 308.113281 714.722656 304.800781 714.554688 301.488281 C 714.390625 298.179688 714.140625 294.875 713.8125 291.574219 C 713.484375 288.273438 713.078125 284.988281 712.585938 281.707031 C 712.097656 278.429688 711.527344 275.164062 710.878906 271.914062 C 710.230469 268.660156 709.5 265.429688 708.691406 262.214844 C 707.886719 259 707 255.804688 706.035156 252.632812 C 705.070312 249.460938 704.027344 246.316406 702.910156 243.195312 C 701.789062 240.074219 700.597656 236.980469 699.324219 233.917969 C 698.054688 230.859375 696.710938 227.828125 695.292969 224.832031 C 693.871094 221.835938 692.382812 218.875 690.816406 215.953125 C 689.253906 213.03125 687.617188 210.148438 685.914062 207.304688 C 684.207031 204.460938 682.433594 201.660156 680.589844 198.90625 C 678.75 196.148438 676.839844 193.441406 674.863281 190.777344 C 672.890625 188.117188 670.847656 185.503906 668.746094 182.941406 C 666.640625 180.378906 664.476562 177.871094 662.25 175.414062 C 660.023438 172.957031 657.738281 170.554688 655.394531 168.210938 C 653.050781 165.867188 650.652344 163.582031 648.195312 161.355469 C 645.738281 159.128906 643.230469 156.964844 640.667969 154.859375 C 638.105469 152.757812 635.492188 150.71875 632.828125 148.742188 C 630.167969 146.765625 627.457031 144.859375 624.703125 143.015625 C 621.945312 141.171875 619.144531 139.398438 616.304688 137.695312 C 613.460938 135.988281 610.578125 134.355469 607.652344 132.789062 C 604.730469 131.226562 601.769531 129.734375 598.773438 128.316406 C 595.777344 126.898438 592.75 125.550781 589.6875 124.28125 C 586.625 123.011719 583.535156 121.816406 580.414062 120.699219 C 577.292969 119.578125 574.144531 118.539062 570.972656 117.574219 C 567.800781 116.609375 564.609375 115.722656 561.394531 114.914062 C 558.179688 114.105469 554.945312 113.378906 551.695312 112.726562 C 548.445312 112.078125 545.179688 111.507812 541.898438 111.019531 C 538.621094 110.53125 535.332031 110.121094 532.03125 109.792969 C 528.734375 109.464844 525.429688 109.21875 522.117188 109.050781 C 518.808594 108.886719 515.492188 108.800781 512.179688 108.796875 Z M 512.179688 492.730469 C 509.210938 492.730469 506.246094 492.65625 503.28125 492.511719 C 500.320312 492.367188 497.359375 492.148438 494.40625 491.855469 C 491.453125 491.566406 488.511719 491.203125 485.574219 490.769531 C 482.640625 490.332031 479.71875 489.824219 476.808594 489.246094 C 473.898438 488.667969 471.003906 488.019531 468.125 487.296875 C 465.246094 486.574219 462.390625 485.785156 459.550781 484.921875 C 456.710938 484.0625 453.894531 483.132812 451.101562 482.132812 C 448.304688 481.132812 445.539062 480.066406 442.796875 478.929688 C 440.054688 477.792969 437.34375 476.59375 434.664062 475.324219 C 431.980469 474.054688 429.332031 472.722656 426.714844 471.324219 C 424.097656 469.921875 421.515625 468.460938 418.972656 466.9375 C 416.425781 465.410156 413.917969 463.824219 411.453125 462.175781 C 408.984375 460.527344 406.558594 458.820312 404.175781 457.050781 C 401.792969 455.285156 399.457031 453.457031 397.160156 451.578125 C 394.867188 449.695312 392.621094 447.757812 390.425781 445.765625 C 388.226562 443.773438 386.078125 441.726562 383.980469 439.628906 C 381.882812 437.53125 379.835938 435.382812 377.84375 433.183594 C 375.851562 430.984375 373.914062 428.738281 372.03125 426.445312 C 370.148438 424.152344 368.324219 421.8125 366.554688 419.429688 C 364.789062 417.046875 363.082031 414.621094 361.433594 412.15625 C 359.785156 409.6875 358.195312 407.179688 356.671875 404.636719 C 355.144531 402.089844 353.683594 399.511719 352.285156 396.894531 C 350.886719 394.277344 349.550781 391.628906 348.285156 388.945312 C 347.015625 386.261719 345.8125 383.550781 344.675781 380.808594 C 343.542969 378.070312 342.476562 375.300781 341.476562 372.507812 C 340.476562 369.714844 339.546875 366.898438 338.683594 364.058594 C 337.824219 361.21875 337.03125 358.359375 336.308594 355.480469 C 335.589844 352.601562 334.941406 349.707031 334.359375 346.796875 C 333.78125 343.890625 333.273438 340.964844 332.839844 338.03125 C 332.402344 335.097656 332.039062 332.152344 331.75 329.199219 C 331.460938 326.246094 331.242188 323.289062 331.09375 320.324219 C 330.949219 317.359375 330.878906 314.394531 330.878906 311.429688 C 330.878906 308.460938 330.949219 305.496094 331.09375 302.53125 C 331.242188 299.570312 331.460938 296.609375 331.75 293.65625 C 332.039062 290.707031 332.402344 287.761719 332.839844 284.828125 C 333.273438 281.890625 333.78125 278.96875 334.359375 276.058594 C 334.941406 273.148438 335.589844 270.253906 336.308594 267.375 C 337.03125 264.496094 337.824219 261.640625 338.683594 258.800781 C 339.546875 255.960938 340.476562 253.144531 341.476562 250.351562 C 342.476562 247.554688 343.542969 244.789062 344.675781 242.046875 C 345.8125 239.304688 347.015625 236.59375 348.285156 233.914062 C 349.550781 231.230469 350.886719 228.582031 352.285156 225.964844 C 353.683594 223.347656 355.144531 220.765625 356.671875 218.222656 C 358.195312 215.675781 359.785156 213.171875 361.433594 210.703125 C 363.082031 208.234375 364.789062 205.8125 366.554688 203.425781 C 368.324219 201.042969 370.148438 198.707031 372.03125 196.414062 C 373.914062 194.117188 375.851562 191.871094 377.84375 189.675781 C 379.835938 187.476562 381.882812 185.328125 383.980469 183.230469 C 386.078125 181.132812 388.226562 179.085938 390.425781 177.09375 C 392.621094 175.101562 394.867188 173.164062 397.160156 171.28125 C 399.457031 169.398438 401.792969 167.574219 404.175781 165.804688 C 406.558594 164.039062 408.984375 162.332031 411.453125 160.683594 C 413.917969 159.035156 416.425781 157.445312 418.972656 155.921875 C 421.515625 154.394531 424.097656 152.933594 426.714844 151.535156 C 429.332031 150.136719 431.980469 148.800781 434.660156 147.535156 C 437.34375 146.265625 440.054688 145.0625 442.796875 143.929688 C 445.539062 142.792969 448.304688 141.726562 451.101562 140.726562 C 453.894531 139.726562 456.710938 138.796875 459.550781 137.933594 C 462.390625 137.074219 465.246094 136.28125 468.125 135.558594 C 471.003906 134.839844 473.898438 134.191406 476.808594 133.609375 C 479.71875 133.03125 482.640625 132.523438 485.574219 132.089844 C 488.511719 131.652344 491.453125 131.289062 494.40625 131 C 497.359375 130.710938 500.320312 130.492188 503.28125 130.34375 C 506.246094 130.199219 509.210938 130.128906 512.179688 130.128906 C 515.144531 130.128906 518.109375 130.199219 521.074219 130.34375 C 524.039062 130.492188 526.996094 130.710938 529.949219 131 C 532.902344 131.289062 535.847656 131.652344 538.78125 132.089844 C 541.714844 132.523438 544.636719 133.03125 547.546875 133.609375 C 550.457031 134.191406 553.351562 134.839844 556.230469 135.558594 C 559.109375 136.28125 561.96875 137.074219 564.808594 137.933594 C 567.648438 138.796875 570.464844 139.726562 573.257812 140.726562 C 576.050781 141.726562 578.816406 142.792969 581.558594 143.929688 C 584.300781 145.0625 587.011719 146.265625 589.695312 147.535156 C 592.378906 148.800781 595.027344 150.136719 597.644531 151.535156 C 600.261719 152.933594 602.839844 154.394531 605.386719 155.921875 C 607.929688 157.445312 610.4375 159.035156 612.902344 160.683594 C 615.371094 162.332031 617.796875 164.039062 620.179688 165.804688 C 622.5625 167.574219 624.902344 169.398438 627.195312 171.28125 C 629.488281 173.164062 631.734375 175.101562 633.933594 177.09375 C 636.132812 179.085938 638.28125 181.132812 640.378906 183.230469 C 642.476562 185.328125 644.519531 187.476562 646.515625 189.675781 C 648.507812 191.871094 650.445312 194.117188 652.328125 196.414062 C 654.207031 198.707031 656.035156 201.042969 657.800781 203.425781 C 659.570312 205.8125 661.277344 208.234375 662.925781 210.703125 C 664.574219 213.171875 666.160156 215.675781 667.6875 218.222656 C 669.210938 220.765625 670.671875 223.347656 672.070312 225.964844 C 673.472656 228.582031 674.804688 231.230469 676.074219 233.914062 C 677.339844 236.59375 678.542969 239.304688 679.679688 242.046875 C 680.816406 244.789062 681.882812 247.554688 682.882812 250.351562 C 683.882812 253.144531 684.8125 255.960938 685.671875 258.800781 C 686.535156 261.640625 687.324219 264.496094 688.046875 267.375 C 688.765625 270.253906 689.417969 273.148438 689.996094 276.058594 C 690.574219 278.96875 691.082031 281.890625 691.519531 284.828125 C 691.953125 287.761719 692.316406 290.707031 692.605469 293.65625 C 692.898438 296.609375 693.117188 299.570312 693.261719 302.53125 C 693.40625 305.496094 693.480469 308.460938 693.480469 311.429688 C 693.476562 314.394531 693.402344 317.359375 693.253906 320.320312 C 693.101562 323.285156 692.882812 326.242188 692.589844 329.191406 C 692.296875 332.144531 691.929688 335.085938 691.492188 338.019531 C 691.054688 340.953125 690.542969 343.875 689.960938 346.785156 C 689.382812 349.695312 688.730469 352.585938 688.007812 355.464844 C 687.285156 358.339844 686.492188 361.195312 685.628906 364.035156 C 684.765625 366.871094 683.832031 369.6875 682.832031 372.480469 C 681.832031 375.273438 680.761719 378.039062 679.625 380.777344 C 678.488281 383.519531 677.285156 386.226562 676.015625 388.910156 C 674.746094 391.589844 673.410156 394.238281 672.011719 396.851562 C 670.613281 399.46875 669.152344 402.046875 667.625 404.59375 C 666.097656 407.136719 664.511719 409.640625 662.863281 412.105469 C 661.214844 414.574219 659.507812 416.996094 657.738281 419.378906 C 655.972656 421.761719 654.148438 424.097656 652.265625 426.390625 C 650.382812 428.683594 648.445312 430.929688 646.453125 433.125 C 644.460938 435.324219 642.417969 437.472656 640.320312 439.570312 C 638.222656 441.667969 636.074219 443.710938 633.875 445.703125 C 631.679688 447.695312 629.433594 449.632812 627.140625 451.515625 C 624.847656 453.398438 622.511719 455.222656 620.128906 456.988281 C 617.746094 458.757812 615.320312 460.464844 612.855469 462.113281 C 610.390625 463.761719 607.886719 465.347656 605.34375 466.875 C 602.796875 468.402344 600.21875 469.863281 597.601562 471.261719 C 594.988281 472.660156 592.339844 473.996094 589.660156 475.265625 C 586.976562 476.535156 584.269531 477.738281 581.527344 478.875 C 578.789062 480.011719 576.023438 481.082031 573.230469 482.082031 C 570.4375 483.082031 567.621094 484.015625 564.785156 484.878906 C 561.945312 485.742188 559.089844 486.535156 556.210938 487.257812 C 553.335938 487.980469 550.441406 488.632812 547.535156 489.214844 C 544.625 489.792969 541.703125 490.304688 538.769531 490.742188 C 535.835938 491.179688 532.894531 491.546875 529.941406 491.839844 C 526.992188 492.132812 524.035156 492.355469 521.070312 492.503906 C 518.109375 492.652344 515.144531 492.726562 512.179688 492.730469 Z M 512.179688 492.730469 " fill-opacity="1" fill-rule="nonzero"/></g></svg>