<svg xmlns="http://www.w3.org/2000/svg" xmlns:xlink="http://www.w3.org/1999/xlink" width="1366" zoomAndPan="magnify" viewBox="0 0 1024.5 623.24998" height="831" preserveAspectRatio="xMidYMid meet" version="1.0"><defs><clipPath id="993f6fb2e5"><path d="M 299.726562 98.976562 L 724.265625 98.976562 L 724.265625 523.515625 L 299.726562 523.515625 Z M 299.726562 98.976562 " clip-rule="nonzero"/></clipPath><clipPath id="100ec4ae91"><path d="M 511.996094 98.976562 C 394.761719 98.976562 299.726562 194.011719 299.726562 311.246094 C 299.726562 428.480469 394.761719 523.515625 511.996094 523.515625 C 629.230469 523.515625 724.265625 428.480469 724.265625 311.246094 C 724.265625 194.011719 629.230469 98.976562 511.996094 98.976562 Z M 511.996094 98.976562 " clip-rule="nonzero"/></clipPath><clipPath id="9cb3000616"><path d="M 396.304688 270 L 476 270 L 476 335 L 396.304688 335 Z M 396.304688 270 " clip-rule="nonzero"/></clipPath></defs><g clip-path="url(#993f6fb2e5)"><g clip-path="url(#100ec4ae91)"><path stroke-linecap="butt" transform="matrix(0.749099, 0, 0, 0.749099, 299.726774, 98.976923)" fill="none" stroke-linejoin="miter" d="M 283.366365 -0.000481201 C 126.865752 -0.000481201 -0.000282504 126.865553 -0.000282504 283.366166 C -0.000282504 439.866779 126.865752 566.732813 283.366365 566.732813 C 439.866978 566.732813 566.733012 439.866779 566.733012 283.366166 C 566.733012 126.865553 439.866978 -0.000481201 283.366365 -0.000481201 Z M 283.366365 -0.000481201 " stroke="#000000" stroke-width="30" stroke-opacity="1" stroke-miterlimit="4"/></g></g><path fill="#000000" d="M 608.878906 219.542969 C 608.15625 217.089844 606.242188 215.175781 603.789062 214.453125 C 603.789062 214.453125 539.777344 195.40625 487.109375 248.0625 C 461.15625 274.015625 434.152344 316.492188 432.078125 340.839844 C 431.886719 343.046875 432.679688 345.230469 434.25 346.792969 L 476.539062 389.078125 C 478.101562 390.652344 480.285156 391.445312 482.488281 391.253906 C 506.839844 389.179688 549.316406 362.175781 575.269531 336.222656 C 627.925781 283.554688 608.878906 219.542969 608.878906 219.542969 Z M 595.410156 227.929688 C 598.085938 241.679688 603.164062 287.0625 564.636719 325.589844 C 542.300781 347.933594 506.917969 371.933594 484.554688 375.84375 C 484.554688 375.84375 447.488281 338.777344 447.488281 338.777344 C 451.40625 316.410156 475.394531 281.027344 497.742188 258.691406 C 536.269531 220.164062 581.660156 225.246094 595.398438 227.921875 Z M 595.410156 227.929688 " fill-opacity="1" fill-rule="evenodd"/><path fill="#000000" d="M 564.699219 258.632812 C 552.042969 245.976562 531.480469 245.976562 518.824219 258.632812 C 506.167969 271.289062 506.167969 291.851562 518.824219 304.507812 C 531.480469 317.164062 552.042969 317.164062 564.699219 304.507812 C 577.351562 291.851562 577.351562 271.289062 564.699219 258.632812 Z M 554.066406 269.265625 C 560.859375 276.058594 560.859375 287.082031 554.066406 293.875 C 547.273438 300.667969 536.25 300.667969 529.457031 293.875 C 522.660156 287.082031 522.660156 276.058594 529.457031 269.265625 C 536.25 262.472656 547.273438 262.472656 554.066406 269.265625 Z M 554.066406 269.265625 " fill-opacity="1" fill-rule="evenodd"/><path fill="#000000" d="M 522.613281 361.59375 L 461.738281 300.71875 C 458.8125 297.792969 454.042969 297.792969 451.117188 300.71875 C 448.179688 303.65625 448.179688 308.414062 451.117188 311.351562 L 511.980469 372.214844 C 514.917969 375.152344 519.675781 375.152344 522.613281 372.214844 C 525.539062 369.289062 525.539062 364.519531 522.613281 361.59375 Z M 522.613281 361.59375 " fill-opacity="1" fill-rule="evenodd"/><path fill="#000000" d="M 537.804688 354.898438 C 537.804688 354.898438 536.289062 371.464844 535.246094 382.9375 C 534.867188 387.125 532.410156 390.832031 528.714844 392.828125 L 503.460938 406.425781 C 503.460938 406.425781 503.460938 383.769531 503.460938 383.769531 C 503.460938 379.621094 500.097656 376.253906 495.949219 376.253906 C 491.800781 376.253906 488.433594 379.621094 488.433594 383.769531 L 488.433594 419.011719 C 488.433594 421.65625 489.824219 424.109375 492.089844 425.464844 C 494.363281 426.816406 497.179688 426.886719 499.515625 425.625 C 499.515625 425.625 522.421875 413.289062 535.839844 406.0625 C 543.984375 401.683594 549.386719 393.507812 550.21875 384.300781 C 551.261719 372.824219 552.773438 356.253906 552.773438 356.253906 C 553.144531 352.125 550.097656 348.464844 545.96875 348.09375 C 541.832031 347.714844 538.171875 350.761719 537.800781 354.898438 Z M 537.804688 354.898438 " fill-opacity="1" fill-rule="evenodd"/><g clip-path="url(#9cb3000616)"><path fill="#000000" d="M 467.078125 270.558594 C 467.078125 270.558594 450.503906 272.070312 439.03125 273.113281 C 429.824219 273.945312 421.644531 279.34375 417.265625 287.492188 C 410.042969 300.910156 397.707031 323.816406 397.707031 323.816406 C 396.445312 326.152344 396.515625 328.964844 397.867188 331.242188 C 399.21875 333.503906 401.675781 334.898438 404.320312 334.898438 L 439.5625 334.898438 C 443.710938 334.898438 447.078125 331.53125 447.078125 327.382812 C 447.078125 323.234375 443.710938 319.867188 439.5625 319.867188 L 416.90625 319.867188 L 430.503906 294.617188 C 432.5 290.917969 436.207031 288.464844 440.394531 288.082031 C 451.867188 287.042969 468.429688 285.527344 468.429688 285.527344 C 472.570312 285.15625 475.617188 281.5 475.234375 277.359375 C 474.863281 273.234375 471.207031 270.1875 467.078125 270.558594 Z M 467.078125 270.558594 " fill-opacity="1" fill-rule="evenodd"/></g><path fill="#000000" d="M 418.460938 358.996094 L 402.527344 374.929688 C 399.601562 377.867188 399.601562 382.625 402.527344 385.5625 C 405.464844 388.488281 410.222656 388.488281 413.160156 385.5625 L 429.089844 369.628906 C 432.027344 366.691406 432.027344 361.933594 429.089844 358.996094 C 426.15625 356.0625 421.394531 356.0625 418.460938 358.996094 Z M 418.460938 358.996094 " fill-opacity="1" fill-rule="evenodd"/><path fill="#000000" d="M 436.085938 376.625 L 406.054688 406.644531 C 403.117188 409.582031 403.117188 414.339844 406.054688 417.277344 C 408.992188 420.210938 413.75 420.210938 416.6875 417.277344 L 446.707031 387.246094 C 449.644531 384.320312 449.644531 379.550781 446.707031 376.625 C 443.78125 373.6875 439.011719 373.6875 436.085938 376.625 Z M 436.085938 376.625 " fill-opacity="1" fill-rule="evenodd"/><path fill="#000000" d="M 453.703125 394.238281 L 437.769531 410.171875 C 434.84375 413.109375 434.84375 417.867188 437.769531 420.804688 C 440.703125 423.730469 445.464844 423.730469 448.402344 420.804688 L 464.332031 404.871094 C 467.269531 401.933594 467.269531 397.175781 464.332031 394.238281 C 461.398438 391.304688 456.636719 391.304688 453.703125 394.238281 Z M 453.703125 394.238281 " fill-opacity="1" fill-rule="evenodd"/></svg>